<svg fill="none" height="24" viewBox="0 0 24 24" width="24" xmlns="http://www.w3.org/2000/svg"><g stroke="#000" stroke-width="2"><path d="m14 3.2686c0-.70063-.568-1.2686-1.2686-1.2686h-1.4628c-.7006 0-1.2686.56797-1.2686 1.2686 0 .57885-.39635 1.07442-.9348 1.28686-.08522.03362-.16973.06867-.25348.1051-.53102.231-1.16197.16088-1.57145-.24859-.49553-.49554-1.29895-.49554-1.79448 0l-1.03392 1.03391c-.49555.49555-.49555 1.29899 0 1.79454.40948.40948.4796 1.04044.24862 1.57147-.03641.0837-.07143.16815-.10503.25331-.21244.53845-.70802.9348-1.28686.9348-.70063 0-1.2686.568-1.2686 1.2686v1.4628c0 .7006.56797 1.2686 1.2686 1.2686.57884 0 1.07442.3963 1.28686.9348.0336.0852.06862.1696.10503.2533.23099.531.16086 1.162-.24862 1.5715-.49555.4955-.49555 1.299 0 1.7945l1.03391 1.0339c.49554.4956 1.29896.4956 1.7945 0 .40947-.4094 1.04043-.4796 1.57145-.2486.08375.0365.16825.0715.25347.1051.53845.2125.9348.7081.9348 1.2869 0 .7006.568 1.2686 1.2686 1.2686h1.4628c.7006 0 1.2686-.568 1.2686-1.2686 0-.5788.3963-1.0744.9348-1.2869.0852-.0336.1697-.0686.2534-.105.531-.231 1.1619-.1609 1.5713.2486.4955.4955 1.2989.4955 1.7944 0l1.0341-1.0341c.4955-.4955.4955-1.2988 0-1.7943-.4095-.4095-.4796-1.0404-.2486-1.5714.0365-.0837.0715-.1683.1051-.2535.2125-.5384.7081-.9348 1.2869-.9348.7006 0 1.2686-.568 1.2686-1.2686v-1.4628c0-.7006-.568-1.2686-1.2686-1.2686-.5788 0-1.0744-.39635-1.2869-.9348-.0336-.08524-.0686-.16976-.1051-.25354-.231-.53098-.1609-1.16189.2486-1.57133.4955-.4955.4955-1.29886 0-1.79436l-1.0341-1.03404c-.4955-.49551-1.2989-.49551-1.7944 0-.4094.40945-1.0403.47957-1.5713.24859-.0837-.03642-.1682-.07145-.2534-.10506-.5385-.21244-.9348-.70802-.9348-1.28686z"/><path d="m16 12c0 2.2091-1.7909 4-4 4-2.20914 0-4-1.7909-4-4 0-2.20914 1.79086-4 4-4 2.2091 0 4 1.79086 4 4z"/></g></svg>