<svg fill="none" height="20" viewBox="0 0 20 20" width="20" xmlns="http://www.w3.org/2000/svg"><path d="m4.02682 2.5v.5h-1.52682c-.27614 0-.5.22386-.5.5v13c0 .2761.22386.5.5.5h15c.2761 0 .5-.2239.5-.5v-13c0-.27614-.2239-.5-.5-.5h-1.5268v-.5c0-.27614-.2239-.5-.5-.5h-3.0281c-.9425 0-1.8255.40492-2.4451 1.0902-.61965-.68528-1.50259-1.0902-2.44505-1.0902h-3.02813c-.27614 0-.5.22386-.5.5zm10.94638.96416c-.0009.01184-.0013.02379-.0013.03584s.0004.024.0013.03584v10.40536h-2.353c-.7846 0-1.5271.271-2.1202.7433v-10.60561c.4263-.67222 1.1588-1.07889 1.9451-1.07889h2.5281zm1 .53584h1.0268v12h-6.373c.4515-.6592 1.1943-1.0588 1.9932-1.0588h2.853c.2761 0 .5-.2239.5-.5zm-8.59343 10.9412c.79892 0 1.54168.3996 1.99319 1.0588h-6.37296v-12h1.02682v10.4412c0 .2761.22386.5.5.5zm-2.35295-1v-10.40537c.00084-.01183.00127-.02378.00127-.03583s-.00043-.024-.00127-.03583v-.46417h2.52813c.78624 0 1.51879.40667 1.94505 1.07889v10.60561c-.59312-.4723-1.33559-.7433-2.12023-.7433z" fill="#212121"/></svg>