<svg height="32" viewBox="0 0 32 32" width="32" xmlns="http://www.w3.org/2000/svg"><path d="m25.3943 24a7.8772 7.8772 0 0 0 -1.6707-8.5684 3.918 3.918 0 0 0 -1.0844-4.414l2.7759-2.7759a2.0025 2.0025 0 0 0 0-2.8286l-2.8282-2.8282a2.0021 2.0021 0 0 0 -2.8286 0l-13.1724 13.1724a2.0027 2.0027 0 0 0 0 2.8286l2.8282 2.8282a2.0024 2.0024 0 0 0 2.8286 0l4.7749-4.7754a3.9329 3.9329 0 0 0 5.5139.4326 5.9442 5.9442 0 0 1 .646 6.9287h-7.1775v4h-12v2h24v-6zm-14.5662-4-2.8281-2.8286 1.8787-1.8784 2.8283 2.8281zm5.1719-6a3.9811 3.9811 0 0 0 .0762.7524l-1.9551 1.9546-2.8284-2.8281 9.88-9.88 2.8283 2.8282-3.2488 3.2491a3.9771 3.9771 0 0 0 -4.7522 3.9238zm4 2a2 2 0 1 1 2-2 2.0023 2.0023 0 0 1 -2 2zm6 12h-8v-2h8z"/><path d="m0 0h32v32h-32z" fill="none"/></svg>